<?xml version="1.0" encoding="UTF-8" standalone="no"?>
<svg
   xmlns:dc="http://purl.org/dc/elements/1.1/"
   xmlns:cc="http://creativecommons.org/ns#"
   xmlns:rdf="http://www.w3.org/1999/02/22-rdf-syntax-ns#"
   xmlns:svg="http://www.w3.org/2000/svg"
   xmlns="http://www.w3.org/2000/svg"
   xmlns:sodipodi="http://sodipodi.sourceforge.net/DTD/sodipodi-0.dtd"
   xmlns:inkscape="http://www.inkscape.org/namespaces/inkscape"
   version="1.1"
   x="0px"
   y="0px"
   viewBox="0 0 33 64"
   xml:space="preserve"
   id="svg261"
   sodipodi:docname="icecream.svg"
   width="33"
   height="64"
   inkscape:version="0.92.3 (2405546, 2018-03-11)"><metadata
     id="metadata267"><rdf:RDF><cc:Work
         rdf:about=""><dc:format>image/svg+xml</dc:format><dc:type
           rdf:resource="http://purl.org/dc/dcmitype/StillImage" /><dc:title></dc:title></cc:Work></rdf:RDF></metadata><defs
     id="defs265" /><sodipodi:namedview
     pagecolor="#ffffff"
     bordercolor="#666666"
     borderopacity="1"
     objecttolerance="10"
     gridtolerance="10"
     guidetolerance="10"
     inkscape:pageopacity="0"
     inkscape:pageshadow="2"
     inkscape:window-width="1920"
     inkscape:window-height="1015"
     id="namedview263"
     showgrid="false"
     inkscape:zoom="2.6971429"
     inkscape:cx="16.5"
     inkscape:cy="23.25"
     inkscape:window-x="0"
     inkscape:window-y="0"
     inkscape:window-maximized="1"
     inkscape:current-layer="svg261" /><style
     type="text/css"
     id="style235">
	.st0{fill:none;stroke:#000000;stroke-width:2;stroke-linecap:round;stroke-linejoin:round;stroke-miterlimit:10;}
	.st1{fill:none;}
	.st2{fill:none;stroke:#000000;stroke-width:2;stroke-linecap:round;stroke-linejoin:round;}
</style><g
     id="g255"
     transform="translate(-18.5,-3)"><g
       id="g241"><g
         id="g239"><path
           d="M 46.925781,53 H 23.074219 C 20.551758,53 18.5,50.948242 18.5,48.425781 V 15.273926 C 18.5,8.5058594 24.005859,3 30.773926,3 h 8.452148 C 45.994141,3 51.5,8.5058594 51.5,15.273926 V 48.425781 C 51.5,50.948242 49.448242,53 46.925781,53 Z M 30.773926,5 C 25.108887,5 20.5,9.6088867 20.5,15.273926 V 48.425781 C 20.5,49.845215 21.654785,51 23.074219,51 H 46.925781 C 48.345215,51 49.5,49.845215 49.5,48.425781 V 15.273926 C 49.5,9.6088867 44.891113,5 39.226074,5 Z"
           id="path237"
           inkscape:connector-curvature="0" /></g></g><g
       id="g247"><g
         id="g245"><path
           d="m 35.717285,67 h -2.43457 C 31.196777,67 29.5,65.303223 29.5,63.217285 V 52 c 0,-0.552246 0.447754,-1 1,-1 h 8 c 0.552246,0 1,0.447754 1,1 V 63.217285 C 39.5,65.303223 37.803223,67 35.717285,67 Z M 31.5,53 V 63.217285 C 31.5,64.200195 32.299805,65 33.282715,65 h 2.43457 C 36.700195,65 37.5,64.200195 37.5,63.217285 V 53 Z"
           id="path243"
           inkscape:connector-curvature="0" /></g></g><g
       id="g253"><g
         id="g251"><path
           d="m 30.5,32.491211 c -0.265137,0 -0.519531,-0.105469 -0.707031,-0.292969 l -11,-11 c -0.390625,-0.390625 -0.390625,-1.023437 0,-1.414062 0.390625,-0.390625 1.023437,-0.390625 1.414062,0 L 30.499512,30.07666 40.532715,20.03418 c 0.375,-0.374024 1.039551,-0.375 1.414551,0 l 9.259765,9.260254 c 0.390625,0.390625 0.390625,1.023437 0,1.414062 -0.390625,0.390625 -1.023437,0.390625 -1.414062,0 l -8.552246,-8.552734 -10.033204,10.04248 c -0.1875,0.1875 -0.441894,0.292969 -0.707519,0.292969 z"
           id="path249"
           inkscape:connector-curvature="0" /></g></g></g></svg>