<?xml version="1.0" encoding="UTF-8" standalone="no"?>
<!-- Created with Inkscape (http://www.inkscape.org/) -->

<svg
   xmlns:dc="http://purl.org/dc/elements/1.1/"
   xmlns:cc="http://creativecommons.org/ns#"
   xmlns:rdf="http://www.w3.org/1999/02/22-rdf-syntax-ns#"
   xmlns:svg="http://www.w3.org/2000/svg"
   xmlns="http://www.w3.org/2000/svg"
   xmlns:sodipodi="http://sodipodi.sourceforge.net/DTD/sodipodi-0.dtd"
   xmlns:inkscape="http://www.inkscape.org/namespaces/inkscape"
   width="58.612877mm"
   height="33.967472mm"
   viewBox="0 0 58.612877 33.967472"
   version="1.1"
   id="svg8"
   inkscape:version="0.92.3 (2405546, 2018-03-11)"
   sodipodi:docname="koala.svg">
  <defs
     id="defs2" />
  <sodipodi:namedview
     id="base"
     pagecolor="#ffffff"
     bordercolor="#666666"
     borderopacity="1.0"
     inkscape:pageopacity="0.0"
     inkscape:pageshadow="2"
     inkscape:zoom="0.35"
     inkscape:cx="-430.45619"
     inkscape:cy="-48.203018"
     inkscape:document-units="mm"
     inkscape:current-layer="g49"
     showgrid="false"
     inkscape:window-width="1920"
     inkscape:window-height="1015"
     inkscape:window-x="0"
     inkscape:window-y="0"
     inkscape:window-maximized="1"
     fit-margin-top="0"
     fit-margin-left="0"
     fit-margin-right="0"
     fit-margin-bottom="0" />
  <metadata
     id="metadata5">
    <rdf:RDF>
      <cc:Work
         rdf:about="">
        <dc:format>image/svg+xml</dc:format>
        <dc:type
           rdf:resource="http://purl.org/dc/dcmitype/StillImage" />
        <dc:title></dc:title>
      </cc:Work>
    </rdf:RDF>
  </metadata>
  <g
     inkscape:label="Calque 1"
     inkscape:groupmode="layer"
     id="layer1"
     transform="translate(-15.257797,-66.513687)">
    <g
       id="g49"
       transform="matrix(0.26458333,0,0,0.26458333,12.285288,59.730829)">
      <g
         id="g26">
        <path
           id="path14"
           d="m 144.001,129.577 c -3.401,3.017 -6.859,4.436 -10.302,4.206 -1.794,-0.118 -3.39,-0.676 -4.725,-1.358 0.459,-0.045 0.922,-0.079 1.375,-0.141 4.433,-0.615 7.339,-2.504 9.424,-6.124 1.491,-2.59 1.784,-5.134 2.095,-7.827 0.516,-4.459 0.177,-10.215 -0.905,-15.396 -0.824,-3.951 -2.695,-7.483 -5.721,-10.799 -3.104,-3.401 -7.11,-5.199 -11.584,-5.199 -8.504,0 -16.393,6.392 -18.35,14.868 -1.442,6.248 -0.417,11.798 0.667,17.673 l 0.085,0.461 c 0.917,4.975 2.423,9.963 9.73,11.535 1.275,0.275 2.488,0.481 3.675,0.655 -1.773,1.807 -3.664,2.82 -5.654,2.985 -4.61,0.368 -8.55,-3.716 -8.612,-3.78 -0.755,-0.804 -2.017,-0.845 -2.823,-0.092 -0.807,0.754 -0.85,2.02 -0.096,2.826 0.203,0.217 4.813,5.07 10.919,5.07 0.299,0 0.602,-0.011 0.908,-0.035 3.496,-0.279 6.657,-2.128 9.422,-5.504 1.95,1.624 5.397,3.862 9.854,4.17 4.556,0.319 9.022,-1.435 13.271,-5.201 0.826,-0.732 0.902,-1.996 0.169,-2.823 -0.73,-0.826 -1.995,-0.904 -2.822,-0.17 z m -34.006,-10.361 -0.085,-0.463 c -1.007,-5.455 -1.959,-10.608 -0.704,-16.047 1.523,-6.599 7.871,-11.768 14.452,-11.768 3.319,0 6.303,1.348 8.629,3.896 2.529,2.771 4.086,5.688 4.76,8.919 0.984,4.714 1.31,10.125 0.848,14.12 -0.284,2.468 -0.509,4.417 -1.588,6.29 -1.466,2.546 -3.29,3.711 -6.507,4.157 -1.417,0.196 -2.816,0.292 -4.278,0.292 v 0 c -2.705,0 -5.612,-0.343 -8.888,-1.048 -4.544,-0.977 -5.72,-3.365 -6.639,-8.348 z"
           inkscape:connector-curvature="0" />
        <path
           id="path16"
           d="m 231.364,45.198 c -1.711,-4.134 -5.172,-7.842 -10.01,-10.726 -3.697,-2.203 -7.588,-3.78 -10.907,-5.032 -6.688,-2.524 -13.619,-3.804 -20.604,-3.804 -7.786,0 -15.506,1.582 -22.944,4.702 -0.731,0.307 -4.001,2.17 -6.477,3.651 -2.201,1.315 -3.639,2.227 -4.585,2.896 -3.948,-3.157 -15.698,-11.22 -32.649,-11.22 l -0.483,0.002 c -0.125,-0.006 -0.394,-0.016 -0.797,-0.016 -3.825,0 -17.435,0.885 -34.387,12.078 -0.913,-0.54 -2.307,-1.375 -3.508,-2.096 -4.18,-2.505 -5.542,-3.313 -5.929,-3.485 -9.401,-4.211 -19.803,-5.899 -29.389,-4.752 -3.281,0.392 -6.719,1.157 -10.217,2.274 -7.694,2.458 -13.339,5.837 -17.765,10.635 -4.021,4.358 -10.099,10.945 -9.427,18.815 0.175,2.051 0.896,4.108 2.143,6.115 0.208,0.335 0.666,0.883 2.13,2.596 0.426,0.498 0.98,1.146 1.403,1.651 -1.076,2.575 -3.167,8.883 -0.698,14.473 1.597,3.614 4.734,6.221 9.337,7.762 0.07,1.795 0.573,4.646 2.736,7.179 4.535,5.31 13.827,6.466 27.533,3.324 0.081,8.179 2.474,32.536 27.069,44.386 0.034,0.017 0.068,0.031 0.103,0.046 0.726,0.301 18.051,7.364 42.32,7.365 0.001,0 0.002,0 0.003,0 6.827,0 13.603,-0.574 20.138,-1.707 0.068,-0.012 0.136,-0.027 0.203,-0.046 1.189,-0.337 29.145,-8.408 37.41,-24.447 1.001,-1.365 6.829,-10.093 6.714,-28.006 2.36,0.378 6.153,0.854 10.268,0.854 8.17,0 13.979,-1.856 17.266,-5.519 2.048,-2.282 3.054,-5.19 2.999,-8.662 2.319,-0.763 6.35,-2.625 8.396,-6.729 1.93,-3.872 1.602,-8.658 -0.975,-14.243 0.969,-1.204 2.223,-2.788 2.519,-3.278 2.83,-4.703 3.267,-11.708 1.061,-17.036 z m -4.481,14.961 c -0.23,0.36 -1.738,2.263 -3.003,3.82 -0.498,0.613 -0.589,1.461 -0.232,2.166 2.479,4.887 2.997,8.857 1.543,11.801 -1.996,4.041 -7.229,5.055 -7.275,5.064 -1.035,0.185 -1.75,1.139 -1.637,2.185 0.337,3.104 -0.282,5.485 -1.892,7.278 -2.46,2.741 -7.4,4.19 -14.288,4.19 -6.227,0 -11.839,-1.202 -11.895,-1.214 -0.606,-0.13 -1.235,0.024 -1.707,0.42 -0.475,0.396 -0.738,0.989 -0.717,1.606 0.692,19.27 -5.872,27.956 -5.933,28.034 -0.084,0.105 -0.156,0.22 -0.218,0.34 -7.149,14.146 -33.131,22.011 -34.918,22.536 -6.277,1.082 -12.784,1.63 -19.345,1.63 -0.001,0 -0.002,0 -0.003,0 -22.829,-10e-4 -39.734,-6.637 -40.744,-7.042 -27.076,-13.086 -24.805,-41.912 -24.695,-43.131 0.06,-0.648 -0.199,-1.285 -0.695,-1.707 -0.496,-0.422 -1.166,-0.578 -1.795,-0.414 -5.763,1.483 -10.769,2.235 -14.878,2.235 -5.31,0 -9.058,-1.217 -11.141,-3.618 -2.22,-2.56 -1.806,-5.666 -1.789,-5.783 0.16,-1.012 -0.47,-1.98 -1.46,-2.245 -4.212,-1.124 -6.984,-3.132 -8.24,-5.967 -2.359,-5.328 1.091,-12.134 1.125,-12.2 0.661,-1.274 0.367,-1.618 -2.452,-4.914 -0.685,-0.801 -1.624,-1.897 -1.773,-2.108 -0.924,-1.486 -1.432,-2.906 -1.555,-4.343 -0.522,-6.113 4.835,-11.92 8.381,-15.762 3.937,-4.268 9.035,-7.298 16.042,-9.537 3.257,-1.041 6.444,-1.751 9.474,-2.113 8.875,-1.06 18.544,0.519 27.241,4.413 0.425,0.214 3.373,1.981 5.525,3.271 4.938,2.959 5.053,3.028 5.635,3.028 0.413,-0.005 0.819,-0.114 1.162,-0.346 16.913,-11.5 30.604,-12.083 33.176,-12.083 0.378,0 0.59,0.011 0.617,0.012 0.05,0.003 0.102,0.005 0.151,0.004 l 0.513,-0.003 c 19.041,0 31.204,11.225 31.288,11.303 0.012,0.012 0.023,0.023 0.035,0.034 0.794,0.752 2.047,0.726 2.811,-0.061 0.122,-0.127 0.226,-0.266 0.308,-0.413 1.624,-1.306 9.638,-5.977 10.816,-6.502 13.172,-5.524 27.398,-5.823 40.589,-0.845 3.155,1.19 6.843,2.683 10.271,4.726 2.854,1.701 6.62,4.611 8.362,8.82 1.724,4.167 1.391,9.82 -0.785,13.435 z"
           inkscape:connector-curvature="0" />
        <ellipse
           id="ellipse18"
           ry="4.2140002"
           rx="4.9809999"
           cy="100.346"
           cx="156.457"
           transform="matrix(0.1146,-0.9934,0.9934,0.1146,38.8418,244.2731)" />
        <ellipse
           id="ellipse20"
           ry="4.2140002"
           rx="4.9809999"
           cy="101.629"
           cx="89.572998"
           transform="matrix(0.1146,-0.9934,0.9934,0.1146,-21.6522,178.9653)" />
        <path
           id="path22"
           d="m 203.522,45.947 c -5.369,-3.361 -11.611,-4.785 -18.431,-4.203 -4.863,0.415 -8.853,1.398 -12.556,3.096 -0.152,0.07 -0.597,0.301 -1.196,0.616 -1.007,0.528 -3.945,2.072 -4.896,2.418 -0.515,0.021 -1.021,0.24 -1.396,0.65 -0.74,0.812 -0.687,2.071 0.12,2.818 0.136,0.125 13.633,12.821 18.631,35.124 0.205,0.917 1.019,1.563 1.95,1.563 0.03,0 0.062,-10e-4 0.093,-0.002 0.262,-0.012 26.263,-1.449 27.811,-22.862 0.532,-7.371 -3.539,-15.093 -10.13,-19.218 z m 6.139,18.928 c -1.1,15.221 -17.09,18.378 -22.363,19.006 -4.25,-17.175 -13.179,-28.667 -17.28,-33.249 0.821,-0.407 1.856,-0.939 3.182,-1.636 0.498,-0.261 0.868,-0.458 1.004,-0.521 3.271,-1.499 6.839,-2.372 11.229,-2.746 5.941,-0.507 11.341,0.712 15.968,3.608 5.286,3.309 8.683,9.698 8.26,15.538 z"
           inkscape:connector-curvature="0" />
        <path
           id="path24"
           d="m 78.748,50.374 c -7.561,-4.053 -14.796,-6.108 -21.506,-6.108 -10.024,0 -15.599,4.592 -16.542,5.441 -15.75,11.063 -6.345,27.946 -6.248,28.116 0.035,0.062 0.074,0.121 0.115,0.179 7.655,10.588 19.176,11.732 23.775,11.732 1.24,0 1.991,-0.082 2.073,-0.091 0.847,-0.097 1.539,-0.719 1.725,-1.551 4.958,-22.16 16.959,-34.421 17.078,-34.541 0.447,-0.448 0.656,-1.081 0.564,-1.707 -0.092,-0.626 -0.476,-1.171 -1.034,-1.47 z M 58.582,85.732 c -3.81,0.038 -13.996,-0.787 -20.708,-9.983 -0.71,-1.291 -7.317,-14.118 5.222,-22.837 0.089,-0.062 0.172,-0.13 0.25,-0.206 0.046,-0.044 4.688,-4.44 13.896,-4.44 5.381,0 11.204,1.503 17.339,4.472 -3.633,4.332 -11.785,15.528 -15.999,32.994 z"
           inkscape:connector-curvature="0" />
      </g>
      <text
         id="text30"
         font-weight="bold"
         font-size="5px"
         y="184"
         x="0"
         style="font-weight:bold;font-size:5px;font-family:'Helvetica Neue', Helvetica, Arial-Unicode, Arial, Sans-serif;fill:#000000"></text>
    </g>
  </g>
</svg>
