<?xml version="1.0" encoding="UTF-8" standalone="no"?><svg xmlns="http://www.w3.org/2000/svg" xmlns:xlink="http://www.w3.org/1999/xlink"><symbol xml:space="preserve" id="icecream" viewBox="-15.5 0 64 64" xmlns="http://www.w3.org/2000/svg"><style type="text/css" id="astyle235"/><g id="ag255" transform="translate(-18.5 -3)"><g id="ag241"><g id="ag239"><path d="M46.926 53H23.074a4.58 4.58 0 01-4.574-4.574V15.274C18.5 8.506 24.006 3 30.774 3h8.452C45.994 3 51.5 8.506 51.5 15.274v33.152A4.58 4.58 0 0146.926 53zM30.774 5C25.109 5 20.5 9.609 20.5 15.274v33.152A2.577 2.577 0 0023.074 51h23.852a2.577 2.577 0 002.574-2.574V15.274C49.5 9.609 44.891 5 39.226 5z" id="apath237"/></g></g><g id="ag247"><g id="ag245"><path d="M35.717 67h-2.434a3.787 3.787 0 01-3.783-3.783V52a1 1 0 011-1h8a1 1 0 011 1v11.217A3.787 3.787 0 0135.717 67zM31.5 53v10.217c0 .983.8 1.783 1.783 1.783h2.434c.983 0 1.783-.8 1.783-1.783V53z" id="apath243"/></g></g><g id="ag253"><g id="ag251"><path d="M30.5 32.491a1 1 0 01-.707-.293l-11-11a1 1 0 111.414-1.414L30.5 30.077l10.033-10.043c.375-.374 1.04-.375 1.414 0l9.26 9.26a1 1 0 11-1.414 1.414l-8.552-8.552-10.033 10.042a1 1 0 01-.708.293z" id="apath249"/></g></g></g></symbol><symbol viewBox="0 -46.57 58.61 127.12" id="koala" xmlns="http://www.w3.org/2000/svg"><g transform="matrix(.26458 0 0 .26458 -2.973 -6.783)"><path d="M144.001 129.577c-3.401 3.017-6.859 4.436-10.302 4.206-1.794-.118-3.39-.676-4.725-1.358.459-.045.922-.079 1.375-.141 4.433-.615 7.339-2.504 9.424-6.124 1.491-2.59 1.784-5.134 2.095-7.827.516-4.459.177-10.215-.905-15.396-.824-3.951-2.695-7.483-5.721-10.799-3.104-3.401-7.11-5.199-11.584-5.199-8.504 0-16.393 6.392-18.35 14.868-1.442 6.248-.417 11.798.667 17.673l.085.461c.917 4.975 2.423 9.963 9.73 11.535 1.275.275 2.488.481 3.675.655-1.773 1.807-3.664 2.82-5.654 2.985-4.61.368-8.55-3.716-8.612-3.78a2 2 0 00-2.919 2.734c.203.217 4.813 5.07 10.919 5.07.299 0 .602-.011.908-.035 3.496-.279 6.657-2.128 9.422-5.504 1.95 1.624 5.397 3.862 9.854 4.17 4.556.319 9.022-1.435 13.271-5.201a2 2 0 00-2.653-2.993zm-34.006-10.361l-.085-.463c-1.007-5.455-1.959-10.608-.704-16.047 1.523-6.599 7.871-11.768 14.452-11.768 3.319 0 6.303 1.348 8.629 3.896 2.529 2.771 4.086 5.688 4.76 8.919.984 4.714 1.31 10.125.848 14.12-.284 2.468-.509 4.417-1.588 6.29-1.466 2.546-3.29 3.711-6.507 4.157a30.895 30.895 0 01-4.278.292c-2.705 0-5.612-.343-8.888-1.048-4.544-.977-5.72-3.365-6.639-8.348z"/><path d="M231.364 45.198c-1.711-4.134-5.172-7.842-10.01-10.726-3.697-2.203-7.588-3.78-10.907-5.032-6.688-2.524-13.619-3.804-20.604-3.804-7.786 0-15.506 1.582-22.944 4.702-.731.307-4.001 2.17-6.477 3.651-2.201 1.315-3.639 2.227-4.585 2.896-3.948-3.157-15.698-11.22-32.649-11.22l-.483.002a17.047 17.047 0 00-.797-.016c-3.825 0-17.435.885-34.387 12.078-.913-.54-2.307-1.375-3.508-2.096-4.18-2.505-5.542-3.313-5.929-3.485-9.401-4.211-19.803-5.899-29.389-4.752-3.281.392-6.719 1.157-10.217 2.274-7.694 2.458-13.339 5.837-17.765 10.635-4.021 4.358-10.099 10.945-9.427 18.815.175 2.051.896 4.108 2.143 6.115.208.335.666.883 2.13 2.596.426.498.98 1.146 1.403 1.651-1.076 2.575-3.167 8.883-.698 14.473 1.597 3.614 4.734 6.221 9.337 7.762.07 1.795.573 4.646 2.736 7.179 4.535 5.31 13.827 6.466 27.533 3.324.081 8.179 2.474 32.536 27.069 44.386.034.017.068.031.103.046.726.301 18.051 7.364 42.32 7.365h.003c6.827 0 13.603-.574 20.138-1.707a2.05 2.05 0 00.203-.046c1.189-.337 29.145-8.408 37.41-24.447 1.001-1.365 6.829-10.093 6.714-28.006 2.36.378 6.153.854 10.268.854 8.17 0 13.979-1.856 17.266-5.519 2.048-2.282 3.054-5.19 2.999-8.662 2.319-.763 6.35-2.625 8.396-6.729 1.93-3.872 1.602-8.658-.975-14.243.969-1.204 2.223-2.788 2.519-3.278 2.83-4.703 3.267-11.708 1.061-17.036zm-4.481 14.961c-.23.36-1.738 2.263-3.003 3.82a2 2 0 00-.232 2.166c2.479 4.887 2.997 8.857 1.543 11.801-1.996 4.041-7.229 5.055-7.275 5.064a2 2 0 00-1.637 2.185c.337 3.104-.282 5.485-1.892 7.278-2.46 2.741-7.4 4.19-14.288 4.19-6.227 0-11.839-1.202-11.895-1.214a2 2 0 00-2.424 2.026c.692 19.27-5.872 27.956-5.933 28.034-.084.105-.156.22-.218.34-7.149 14.146-33.131 22.011-34.918 22.536-6.277 1.082-12.784 1.63-19.345 1.63h-.003c-22.829-.001-39.734-6.637-40.744-7.042-27.076-13.086-24.805-41.912-24.695-43.131a2 2 0 00-2.49-2.121c-5.763 1.483-10.769 2.235-14.878 2.235-5.31 0-9.058-1.217-11.141-3.618-2.22-2.56-1.806-5.666-1.789-5.783a2 2 0 00-1.46-2.245c-4.212-1.124-6.984-3.132-8.24-5.967-2.359-5.328 1.091-12.134 1.125-12.2.661-1.274.367-1.618-2.452-4.914-.685-.801-1.624-1.897-1.773-2.108-.924-1.486-1.432-2.906-1.555-4.343-.522-6.113 4.835-11.92 8.381-15.762 3.937-4.268 9.035-7.298 16.042-9.537 3.257-1.041 6.444-1.751 9.474-2.113 8.875-1.06 18.544.519 27.241 4.413.425.214 3.373 1.981 5.525 3.271 4.938 2.959 5.053 3.028 5.635 3.028a2.107 2.107 0 001.162-.346c16.913-11.5 30.604-12.083 33.176-12.083.378 0 .59.011.617.012.05.003.102.005.151.004l.513-.003c19.041 0 31.204 11.225 31.288 11.303l.035.034a2 2 0 003.119-.474c1.624-1.306 9.638-5.977 10.816-6.502 13.172-5.524 27.398-5.823 40.589-.845 3.155 1.19 6.843 2.683 10.271 4.726 2.854 1.701 6.62 4.611 8.362 8.82 1.724 4.167 1.391 9.82-.785 13.435z"/><ellipse ry="4.214" rx="4.981" cy="100.346" cx="156.457" transform="rotate(-83.419 156.458 100.348)"/><ellipse ry="4.214" rx="4.981" cy="101.629" cx="89.573" transform="rotate(-83.419 89.573 101.63)"/><path d="M203.522 45.947c-5.369-3.361-11.611-4.785-18.431-4.203-4.863.415-8.853 1.398-12.556 3.096-.152.07-.597.301-1.196.616-1.007.528-3.945 2.072-4.896 2.418a1.996 1.996 0 00-1.396.65 2.003 2.003 0 00.12 2.818c.136.125 13.633 12.821 18.631 35.124a2 2 0 002.043 1.561c.262-.012 26.263-1.449 27.811-22.862.532-7.371-3.539-15.093-10.13-19.218zm6.139 18.928c-1.1 15.221-17.09 18.378-22.363 19.006-4.25-17.175-13.179-28.667-17.28-33.249.821-.407 1.856-.939 3.182-1.636.498-.261.868-.458 1.004-.521 3.271-1.499 6.839-2.372 11.229-2.746 5.941-.507 11.341.712 15.968 3.608 5.286 3.309 8.683 9.698 8.26 15.538zM78.748 50.374c-7.561-4.053-14.796-6.108-21.506-6.108-10.024 0-15.599 4.592-16.542 5.441-15.75 11.063-6.345 27.946-6.248 28.116.035.062.074.121.115.179 7.655 10.588 19.176 11.732 23.775 11.732 1.24 0 1.991-.082 2.073-.091a2 2 0 001.725-1.551c4.958-22.16 16.959-34.421 17.078-34.541a1.998 1.998 0 00-.47-3.177zM58.582 85.732c-3.81.038-13.996-.787-20.708-9.983-.71-1.291-7.317-14.118 5.222-22.837.089-.062.172-.13.25-.206.046-.044 4.688-4.44 13.896-4.44 5.381 0 11.204 1.503 17.339 4.472-3.633 4.332-11.785 15.528-15.999 32.994z"/></g></symbol></svg>